<?xml version="1.0" encoding="UTF-8"?>
<svg xmlns="http://www.w3.org/2000/svg" xmlns:xlink="http://www.w3.org/1999/xlink" width="435pt" height="175pt" viewBox="0 0 435 175" version="1.1">
<g id="surface1">
<path style=" stroke:none;fill-rule:nonzero;fill:rgb(0%,0%,0%);fill-opacity:1;" d="M 139.1875 61.277344 L 139.453125 62.011719 L 141.84375 61.105469 L 147.3125 75.417969 L 144.921875 76.324219 L 145.21875 77.105469 L 158.8125 71.917969 L 157.359375 65.605469 L 156.6875 65.871094 C 157.03125 67.324219 157.484375 69.027344 156.84375 70.496094 C 156.15625 72.027344 154.53125 72.699219 153.046875 73.277344 L 150.109375 74.386719 C 149.90625 74.402344 149.8125 74.433594 149.71875 74.199219 C 149.6875 74.105469 149.65625 74.011719 149.640625 73.949219 L 147.140625 67.386719 L 148.640625 66.824219 C 150.03125 66.277344 151.15625 66.074219 152.125 68.589844 L 152.796875 68.324219 L 150.4375 62.167969 L 149.765625 62.433594 C 150.015625 63.058594 150.28125 63.777344 150.171875 64.433594 C 150.03125 65.355469 149.1875 65.761719 148.359375 66.089844 L 146.859375 66.652344 L 144.5625 60.652344 C 144.546875 60.605469 144.5 60.511719 144.453125 60.417969 C 144.375 60.214844 144.46875 60.167969 144.59375 60.042969 L 147.875 58.792969 C 149.546875 58.152344 151.453125 57.605469 153.03125 59.496094 C 153.53125 60.105469 153.90625 60.792969 154.265625 61.511719 L 154.921875 61.261719 L 152.390625 56.230469 Z M 139.1875 61.277344 "/>
<path style=" stroke:none;fill-rule:nonzero;fill:rgb(0%,0%,0%);fill-opacity:1;" d="M 157.929688 54.152344 L 158.164062 54.917969 L 160.601562 54.136719 L 163.632812 63.683594 C 164.117188 65.183594 164.820312 66.589844 166.398438 67.464844 C 168.117188 68.433594 170.257812 68.371094 172.117188 67.777344 C 175.179688 66.808594 177.585938 64.308594 176.210938 59.996094 L 173.289062 50.808594 C 173.117188 50.246094 174.039062 49.855469 174.851562 49.605469 L 175.539062 49.386719 L 175.304688 48.621094 L 169.742188 50.386719 L 169.976562 51.152344 L 170.757812 50.902344 C 171.601562 50.636719 172.429688 50.464844 172.617188 51.058594 L 175.523438 60.214844 C 176.257812 62.511719 176.054688 64.777344 173.382812 66.433594 C 172.992188 66.652344 172.570312 66.824219 172.117188 66.980469 C 170.992188 67.339844 169.773438 67.402344 168.695312 66.824219 C 167.382812 66.152344 166.773438 64.605469 166.367188 63.339844 L 163.195312 53.371094 L 165.632812 52.589844 L 165.382812 51.777344 Z M 157.929688 54.152344 "/>
<path style=" stroke:none;fill-rule:nonzero;fill:rgb(0%,0%,0%);fill-opacity:1;" d="M 180.207031 47.289062 L 180.410156 48.054688 L 182.878906 47.414062 L 186.660156 62.304688 L 184.191406 62.945312 L 184.410156 63.757812 L 197.035156 60.539062 L 196.003906 54.195312 L 195.316406 54.367188 C 195.644531 56.820312 196.019531 59.992188 191.628906 61.117188 L 189.785156 61.585938 C 189.519531 61.648438 189.300781 61.679688 189.238281 61.429688 L 185.566406 47.039062 C 185.503906 46.789062 185.816406 46.679688 186.082031 46.601562 L 188.582031 45.976562 L 188.378906 45.210938 Z M 180.207031 47.289062 "/>
<path style=" stroke:none;fill-rule:nonzero;fill:rgb(0%,0%,0%);fill-opacity:1;" d="M 199.765625 42.53125 L 199.921875 43.296875 L 202.421875 42.8125 L 205.28125 57.859375 L 202.78125 58.34375 L 202.953125 59.171875 L 217.25 56.4375 L 216.921875 49.984375 L 216.203125 50.109375 C 216.296875 51.625 216.4375 53.375 215.53125 54.6875 C 214.578125 56.09375 212.875 56.484375 211.3125 56.78125 L 208.234375 57.359375 C 208.015625 57.328125 207.921875 57.34375 207.875 57.09375 C 207.859375 57 207.859375 56.90625 207.84375 56.84375 L 206.53125 49.953125 L 208.09375 49.65625 C 209.578125 49.375 210.703125 49.328125 211.21875 51.984375 L 211.921875 51.859375 L 210.671875 45.390625 L 209.96875 45.515625 C 210.109375 46.171875 210.25 46.921875 210.046875 47.546875 C 209.71875 48.453125 208.8125 48.6875 207.9375 48.859375 L 206.375 49.15625 L 205.171875 42.859375 C 205.171875 42.8125 205.140625 42.71875 205.109375 42.609375 C 205.078125 42.390625 205.15625 42.359375 205.328125 42.265625 L 208.765625 41.609375 C 210.53125 41.265625 212.5 41.078125 213.734375 43.203125 C 214.109375 43.890625 214.34375 44.640625 214.5625 45.40625 L 215.265625 45.265625 L 213.640625 39.875 Z M 199.765625 42.53125 "/>
<path style=" stroke:none;fill-rule:nonzero;fill:rgb(0%,0%,0%);fill-opacity:1;" d="M 219.015625 38.902344 L 219.125 39.683594 L 221.640625 39.355469 L 223.578125 54.589844 L 221.0625 54.917969 L 221.171875 55.761719 L 228.859375 54.777344 L 228.75 53.996094 L 226.21875 54.324219 L 225.28125 46.964844 L 227.78125 46.652344 C 229.453125 46.433594 231.15625 47.011719 231.625 49.042969 L 231.875 51.027344 C 232.0625 52.496094 232.703125 54.589844 236.859375 54.058594 C 238.15625 53.902344 239.109375 52.730469 238.9375 51.355469 C 238.90625 51.105469 238.734375 51.027344 238.515625 51.058594 C 238.0625 51.121094 238.234375 51.949219 238.109375 52.355469 C 237.9375 52.855469 237.5 53.371094 236.859375 53.449219 C 234.71875 53.714844 234.53125 49.917969 234.390625 49.355469 C 234.046875 47.402344 233.09375 46.480469 230.859375 46.011719 C 232.5 45.261719 234.796875 44.199219 234.453125 41.449219 C 234.25 39.839844 233.015625 38.636719 231.421875 38.121094 C 229.765625 37.589844 228.046875 37.746094 226.359375 37.964844 Z M 225.21875 46.371094 L 224.359375 39.667969 C 224.359375 39.605469 224.3125 39.496094 224.296875 39.402344 C 224.25 39.058594 224.5 38.996094 224.765625 38.964844 L 226.859375 38.699219 C 228.140625 38.527344 229.71875 38.496094 230.734375 39.464844 C 231.34375 40.074219 231.5625 40.996094 231.671875 41.824219 C 231.765625 42.621094 231.8125 43.621094 231.34375 44.308594 C 230.46875 45.699219 228.71875 45.917969 227.25 46.105469 Z M 225.21875 46.371094 "/>
<path style=" stroke:none;fill-rule:nonzero;fill:rgb(0%,0%,0%);fill-opacity:1;" d="M 244.832031 51.683594 L 244.863281 51.683594 C 245.972656 52.917969 248.222656 53.167969 249.691406 53.074219 C 252.300781 52.917969 254.753906 51.292969 254.535156 47.714844 C 254.394531 45.527344 253.003906 43.402344 250.488281 42.902344 C 248.035156 42.402344 244.753906 42.605469 244.316406 39.761719 L 244.300781 39.527344 C 244.191406 37.777344 245.457031 36.464844 247.316406 36.355469 L 247.582031 36.339844 C 249.988281 36.324219 251.972656 37.636719 252.644531 40.855469 C 252.660156 41.074219 252.722656 41.214844 252.957031 41.199219 L 253.160156 41.183594 C 253.332031 41.183594 253.394531 41.121094 253.378906 40.933594 L 253.035156 35.527344 C 253.019531 35.355469 253.003906 35.230469 252.832031 35.246094 C 252.550781 35.261719 251.863281 36.449219 251.566406 37.058594 C 250.347656 35.980469 248.972656 35.496094 247.269531 35.605469 C 244.894531 35.746094 242.332031 37.261719 242.550781 40.652344 C 242.660156 42.496094 243.894531 44.199219 245.644531 44.855469 C 248.285156 45.824219 252.269531 44.902344 252.800781 48.605469 L 252.816406 48.792969 C 252.941406 50.792969 251.582031 52.183594 249.644531 52.292969 C 247.035156 52.464844 244.300781 51.386719 243.738281 47.949219 L 243.722656 47.777344 C 243.707031 47.527344 243.582031 47.527344 243.441406 47.527344 L 243.238281 47.542969 C 243.019531 47.558594 242.988281 47.683594 243.003906 47.871094 L 243.347656 53.183594 C 243.363281 53.371094 243.394531 53.480469 243.566406 53.464844 C 243.832031 53.449219 244.519531 52.261719 244.832031 51.683594 Z M 244.832031 51.683594 "/>
<path style=" stroke:none;fill-rule:nonzero;fill:rgb(0%,0%,0%);fill-opacity:1;" d="M 279.464844 35.261719 L 279.417969 36.058594 L 281.121094 36.167969 C 281.496094 36.183594 281.574219 36.324219 281.714844 36.621094 L 281.917969 37.277344 C 283.714844 42.417969 285.261719 47.574219 287.152344 52.636719 C 287.246094 52.949219 287.339844 53.042969 287.683594 53.074219 C 288.214844 53.105469 288.339844 52.558594 288.542969 52.105469 C 290.808594 47.558594 292.996094 42.964844 295.261719 38.417969 C 295.558594 37.886719 295.527344 37.277344 296.480469 37.246094 C 296.996094 37.167969 297.511719 37.199219 298.042969 37.246094 L 298.089844 36.449219 L 292.886719 36.121094 L 292.839844 36.917969 C 293.511719 36.949219 294.917969 37.074219 294.886719 37.464844 C 294.886719 37.621094 294.652344 37.996094 294.511719 38.246094 C 292.855469 41.683594 291.121094 45.121094 289.480469 48.605469 C 289.292969 48.964844 289.074219 49.292969 288.949219 49.667969 L 284.433594 36.449219 L 286.683594 36.589844 L 286.730469 35.714844 Z M 279.464844 35.261719 "/>
<path style=" stroke:none;fill-rule:nonzero;fill:rgb(0%,0%,0%);fill-opacity:1;" d="M 301.554688 36.898438 L 301.460938 37.664062 L 303.976562 37.976562 L 302.039062 53.164062 L 299.523438 52.851562 L 299.414062 53.695312 L 313.835938 55.523438 L 315.539062 49.289062 L 314.820312 49.195312 C 314.429688 50.648438 314.023438 52.367188 312.773438 53.335938 C 311.429688 54.367188 309.695312 54.210938 308.117188 54.007812 L 305.007812 53.617188 C 304.804688 53.507812 304.710938 53.492188 304.742188 53.257812 C 304.757812 53.164062 304.789062 53.054688 304.789062 52.992188 L 305.679688 46.023438 L 307.257812 46.226562 C 308.742188 46.414062 309.851562 46.742188 309.507812 49.429688 L 310.210938 49.523438 L 311.039062 42.976562 L 310.335938 42.882812 C 310.257812 43.554688 310.148438 44.304688 309.757812 44.851562 C 309.179688 45.601562 308.242188 45.554688 307.351562 45.445312 L 305.773438 45.242188 L 306.585938 38.867188 C 306.601562 38.820312 306.601562 38.726562 306.601562 38.617188 C 306.632812 38.398438 306.726562 38.398438 306.914062 38.351562 L 310.382812 38.804688 C 312.164062 39.023438 314.085938 39.445312 314.617188 41.851562 C 314.757812 42.632812 314.742188 43.398438 314.726562 44.210938 L 315.445312 44.304688 L 315.554688 38.679688 Z M 301.554688 36.898438 "/>
<path style=" stroke:none;fill-rule:nonzero;fill:rgb(0%,0%,0%);fill-opacity:1;" d="M 320.382812 39.285156 L 320.242188 40.066406 L 322.742188 40.550781 L 319.960938 55.144531 C 319.867188 55.644531 318.851562 55.519531 318.023438 55.347656 L 317.351562 55.222656 L 317.195312 55.988281 L 322.960938 57.097656 L 323.117188 56.332031 L 322.507812 56.207031 C 321.601562 56.035156 320.617188 55.785156 320.710938 55.285156 L 323.429688 41.160156 C 323.601562 41.691406 323.929688 42.160156 324.148438 42.660156 C 326.757812 47.910156 329.429688 53.097656 331.960938 58.285156 C 332.117188 58.597656 332.148438 58.847656 332.570312 58.925781 C 332.851562 58.972656 332.945312 58.863281 332.992188 58.597656 L 335.835938 43.707031 C 335.945312 43.113281 336.992188 43.269531 337.851562 43.425781 L 338.476562 43.550781 L 338.617188 42.769531 L 332.851562 41.660156 L 332.710938 42.441406 L 333.507812 42.597656 C 334.367188 42.769531 335.195312 43.003906 335.085938 43.566406 L 332.976562 54.644531 L 326.460938 41.597656 L 325.820312 40.394531 L 325.320312 40.238281 Z M 320.382812 39.285156 "/>
<path style=" stroke:none;fill-rule:nonzero;fill:rgb(0%,0%,0%);fill-opacity:1;" d="M 340.851562 43.277344 L 340.648438 44.042969 L 343.117188 44.683594 L 339.460938 59.074219 C 339.335938 59.574219 338.335938 59.371094 337.523438 59.167969 L 336.851562 58.996094 L 336.648438 59.746094 L 342.351562 61.199219 L 342.554688 60.449219 L 341.945312 60.292969 C 341.054688 60.074219 340.085938 59.761719 340.210938 59.261719 L 343.789062 45.324219 C 343.914062 45.871094 344.210938 46.355469 344.414062 46.886719 C 346.695312 52.261719 349.054688 57.589844 351.257812 62.933594 C 351.382812 63.261719 351.398438 63.511719 351.820312 63.605469 C 352.101562 63.683594 352.195312 63.574219 352.273438 63.324219 L 356.007812 48.621094 C 356.164062 48.042969 357.179688 48.246094 358.023438 48.464844 L 358.648438 48.621094 L 358.851562 47.855469 L 353.148438 46.417969 L 352.945312 47.183594 L 353.742188 47.371094 C 354.585938 47.589844 355.398438 47.886719 355.257812 48.433594 L 352.476562 59.371094 L 346.773438 45.933594 L 346.195312 44.714844 L 345.726562 44.527344 Z M 340.851562 43.277344 "/>
<path style=" stroke:none;fill-rule:nonzero;fill:rgb(0%,0%,0%);fill-opacity:1;" d="M 362.855469 49.117188 L 362.621094 49.867188 L 365.058594 50.648438 L 360.417969 65.242188 L 357.980469 64.460938 L 357.730469 65.257812 L 371.605469 69.679688 L 374.386719 63.835938 L 373.699219 63.617188 C 373.058594 64.976562 372.339844 66.585938 370.933594 67.335938 C 369.433594 68.117188 367.761719 67.632812 366.230469 67.148438 L 363.246094 66.195312 C 363.058594 66.070312 362.980469 66.039062 363.058594 65.789062 C 363.089844 65.710938 363.136719 65.601562 363.152344 65.539062 L 365.277344 58.851562 L 366.792969 59.335938 C 368.214844 59.789062 369.246094 60.320312 368.417969 62.898438 L 369.105469 63.117188 L 371.105469 56.835938 L 370.417969 56.617188 C 370.214844 57.257812 369.980469 57.976562 369.496094 58.429688 C 368.792969 59.070312 367.886719 58.851562 367.042969 58.585938 L 365.527344 58.101562 L 367.480469 51.976562 C 367.480469 51.929688 367.496094 51.851562 367.527344 51.742188 C 367.605469 51.539062 367.683594 51.554688 367.871094 51.539062 L 371.199219 52.601562 C 372.917969 53.148438 374.746094 53.898438 374.824219 56.351562 C 374.824219 57.148438 374.683594 57.929688 374.511719 58.695312 L 375.199219 58.914062 L 376.324219 53.398438 Z M 362.855469 49.117188 "/>
<path style=" stroke:none;fill-rule:nonzero;fill:rgb(0%,0%,0%);fill-opacity:1;" d="M 382.347656 55.390625 L 382.066406 56.125 L 384.457031 57.03125 L 378.972656 71.390625 L 376.582031 70.484375 L 376.285156 71.265625 L 383.535156 74.03125 L 383.816406 73.296875 L 381.425781 72.390625 L 384.066406 65.46875 L 386.425781 66.359375 C 388.003906 66.96875 389.222656 68.25 388.675781 70.28125 L 387.957031 72.140625 C 387.425781 73.53125 387.003906 75.6875 390.941406 77.1875 C 392.144531 77.640625 393.535156 77.0625 394.035156 75.765625 C 394.128906 75.53125 394.003906 75.40625 393.800781 75.328125 C 393.363281 75.15625 393.128906 75.953125 392.832031 76.234375 C 392.441406 76.609375 391.832031 76.859375 391.222656 76.625 C 389.207031 75.859375 390.832031 72.421875 390.972656 71.875 C 391.597656 69.984375 391.191406 68.71875 389.425781 67.265625 C 391.238281 67.359375 393.753906 67.5 394.738281 64.921875 C 395.332031 63.40625 394.816406 61.765625 393.660156 60.546875 C 392.441406 59.296875 390.863281 58.640625 389.269531 58.03125 Z M 384.285156 64.890625 L 386.691406 58.59375 C 386.707031 58.53125 386.738281 58.40625 386.769531 58.328125 C 386.894531 58 387.128906 58.0625 387.378906 58.15625 L 389.347656 58.90625 C 390.566406 59.375 391.972656 60.09375 392.410156 61.40625 C 392.644531 62.25 392.425781 63.15625 392.128906 63.953125 C 391.847656 64.6875 391.410156 65.578125 390.675781 65.984375 C 389.238281 66.78125 387.597656 66.140625 386.207031 65.609375 Z M 384.285156 64.890625 "/>
<path style="fill:none;stroke-width:1.99252;stroke-linecap:round;stroke-linejoin:round;stroke:rgb(0%,0%,0%);stroke-opacity:1;stroke-miterlimit:10;" d="M 112.5 -68.484375 C 115.726562 -66.871094 118.976562 -65.296875 122.242188 -63.765625 C 125.472656 -62.25 128.722656 -60.777344 131.988281 -59.347656 C 135.21875 -57.9375 138.464844 -56.566406 141.730469 -55.238281 C 144.964844 -53.925781 148.210938 -52.65625 151.476562 -51.433594 C 154.707031 -50.21875 157.957031 -49.050781 161.21875 -47.929688 C 164.453125 -46.820312 167.703125 -45.753906 170.964844 -44.734375 C 174.199219 -43.722656 177.445312 -42.757812 180.707031 -41.839844 C 183.945312 -40.929688 187.191406 -40.066406 190.453125 -39.253906 C 193.6875 -38.441406 196.9375 -37.683594 200.195312 -36.96875 C 203.433594 -36.261719 206.683594 -35.601562 209.941406 -34.988281 C 213.179688 -34.382812 216.429688 -33.824219 219.683594 -33.316406 C 222.925781 -32.808594 226.175781 -32.351562 229.429688 -31.945312 C 232.671875 -31.539062 235.917969 -31.183594 239.171875 -30.878906 C 242.417969 -30.574219 245.664062 -30.320312 248.917969 -30.117188 C 252.164062 -29.914062 255.410156 -29.761719 258.660156 -29.660156 C 261.910156 -29.558594 265.15625 -29.507812 268.40625 -29.507812 C 271.652344 -29.507812 274.902344 -29.558594 278.148438 -29.660156 C 281.398438 -29.761719 284.648438 -29.914062 287.894531 -30.117188 C 291.144531 -30.320312 294.394531 -30.574219 297.636719 -30.878906 C 300.890625 -31.183594 304.140625 -31.539062 307.382812 -31.945312 C 310.636719 -32.351562 313.886719 -32.808594 317.125 -33.316406 C 320.382812 -33.824219 323.628906 -34.382812 326.871094 -34.992188 C 330.128906 -35.601562 333.375 -36.261719 336.613281 -36.972656 C 339.875 -37.683594 343.121094 -38.445312 346.359375 -39.253906 C 349.617188 -40.070312 352.867188 -40.933594 356.101562 -41.84375 C 359.363281 -42.761719 362.613281 -43.726562 365.847656 -44.734375 C 369.109375 -45.757812 372.359375 -46.824219 375.589844 -47.933594 C 378.855469 -49.054688 382.101562 -50.222656 385.335938 -51.4375 C 388.601562 -52.660156 391.847656 -53.929688 395.078125 -55.242188 C 398.34375 -56.570312 401.59375 -57.941406 404.824219 -59.355469 C 408.089844 -60.78125 411.335938 -62.253906 414.566406 -63.769531 C 417.835938 -65.300781 421.082031 -66.875 424.3125 -68.488281 " transform="matrix(1,0,0,-1,0,0)"/>
<path style="fill:none;stroke-width:1.99252;stroke-linecap:round;stroke-linejoin:round;stroke:rgb(0%,0%,0%);stroke-opacity:1;stroke-miterlimit:10;" d="M 112.5 -96.832031 C 115.726562 -95.214844 118.976562 -93.644531 122.242188 -92.109375 C 125.472656 -90.597656 128.722656 -89.125 131.988281 -87.695312 C 135.21875 -86.28125 138.464844 -84.910156 141.730469 -83.585938 C 144.964844 -82.273438 148.210938 -81.003906 151.476562 -79.777344 C 154.707031 -78.566406 157.957031 -77.398438 161.21875 -76.277344 C 164.453125 -75.164062 167.703125 -74.097656 170.964844 -73.078125 C 174.199219 -72.070312 177.445312 -71.105469 180.707031 -70.1875 C 183.945312 -69.277344 187.191406 -68.414062 190.453125 -67.597656 C 193.6875 -66.789062 196.9375 -66.027344 200.195312 -65.316406 C 203.433594 -64.605469 206.683594 -63.945312 209.941406 -63.335938 C 213.179688 -62.726562 216.429688 -62.167969 219.683594 -61.660156 C 222.925781 -61.15625 226.175781 -60.699219 229.429688 -60.292969 C 232.671875 -59.886719 235.917969 -59.53125 239.171875 -59.226562 C 242.417969 -58.921875 245.664062 -58.667969 248.917969 -58.464844 C 252.164062 -58.261719 255.410156 -58.109375 258.660156 -58.007812 C 261.910156 -57.90625 265.15625 -57.855469 268.40625 -57.855469 C 271.652344 -57.855469 274.902344 -57.90625 278.148438 -58.007812 C 281.398438 -58.109375 284.648438 -58.261719 287.894531 -58.464844 C 291.144531 -58.667969 294.394531 -58.921875 297.636719 -59.226562 C 300.890625 -59.53125 304.140625 -59.886719 307.382812 -60.292969 C 310.636719 -60.699219 313.886719 -61.15625 317.125 -61.664062 C 320.382812 -62.171875 323.628906 -62.730469 326.871094 -63.335938 C 330.128906 -63.949219 333.375 -64.609375 336.613281 -65.316406 C 339.875 -66.03125 343.121094 -66.792969 346.359375 -67.601562 C 349.617188 -68.417969 352.867188 -69.28125 356.101562 -70.191406 C 359.363281 -71.105469 362.613281 -72.070312 365.847656 -73.082031 C 369.109375 -74.101562 372.359375 -75.167969 375.589844 -76.28125 C 378.855469 -77.402344 382.101562 -78.570312 385.335938 -79.78125 C 388.601562 -81.007812 391.847656 -82.277344 395.078125 -83.589844 C 398.34375 -84.914062 401.59375 -86.285156 404.824219 -87.699219 C 408.089844 -89.128906 411.335938 -90.601562 414.566406 -92.117188 C 417.835938 -93.648438 421.082031 -95.21875 424.3125 -96.835938 " transform="matrix(1,0,0,-1,0,0)"/>
<path style="fill:none;stroke-width:1.99252;stroke-linecap:round;stroke-linejoin:round;stroke:rgb(0%,0%,0%);stroke-opacity:1;stroke-miterlimit:10;" d="M 112.5 -62.816406 C 115.726562 -61.199219 118.976562 -59.628906 122.242188 -58.09375 C 125.472656 -56.582031 128.722656 -55.109375 131.988281 -53.679688 C 135.21875 -52.265625 138.464844 -50.894531 141.730469 -49.570312 C 144.964844 -48.257812 148.210938 -46.988281 151.476562 -45.761719 C 154.707031 -44.550781 157.957031 -43.382812 161.21875 -42.261719 C 164.453125 -41.148438 167.703125 -40.082031 170.964844 -39.0625 C 174.199219 -38.054688 177.445312 -37.089844 180.707031 -36.171875 C 183.945312 -35.261719 187.191406 -34.398438 190.453125 -33.582031 C 193.6875 -32.773438 196.9375 -32.011719 200.195312 -31.300781 C 203.433594 -30.589844 206.683594 -29.929688 209.941406 -29.320312 C 213.179688 -28.710938 216.429688 -28.152344 219.683594 -27.644531 C 222.925781 -27.140625 226.175781 -26.683594 229.429688 -26.277344 C 232.671875 -25.871094 235.917969 -25.515625 239.171875 -25.210938 C 242.417969 -24.90625 245.664062 -24.652344 248.917969 -24.449219 C 252.164062 -24.246094 255.410156 -24.09375 258.660156 -23.992188 C 261.910156 -23.890625 265.15625 -23.839844 268.40625 -23.839844 C 271.652344 -23.839844 274.902344 -23.890625 278.148438 -23.992188 C 281.398438 -24.09375 284.648438 -24.246094 287.894531 -24.449219 C 291.144531 -24.652344 294.394531 -24.90625 297.636719 -25.210938 C 300.890625 -25.515625 304.140625 -25.871094 307.382812 -26.277344 C 310.636719 -26.683594 313.886719 -27.140625 317.125 -27.648438 C 320.382812 -28.15625 323.628906 -28.714844 326.871094 -29.320312 C 330.128906 -29.933594 333.375 -30.59375 336.613281 -31.300781 C 339.875 -32.015625 343.121094 -32.777344 346.359375 -33.585938 C 349.617188 -34.402344 352.867188 -35.265625 356.101562 -36.175781 C 359.363281 -37.089844 362.613281 -38.054688 365.847656 -39.066406 C 369.109375 -40.085938 372.359375 -41.152344 375.589844 -42.265625 C 378.855469 -43.386719 382.101562 -44.554688 385.335938 -45.765625 C 388.601562 -46.992188 391.847656 -48.261719 395.078125 -49.574219 C 398.34375 -50.898438 401.59375 -52.269531 404.824219 -53.683594 C 408.089844 -55.113281 411.335938 -56.585938 414.566406 -58.101562 C 417.835938 -59.632812 421.082031 -61.203125 424.3125 -62.820312 " transform="matrix(1,0,0,-1,0,0)"/>
<path style="fill:none;stroke-width:1.99252;stroke-linecap:round;stroke-linejoin:round;stroke:rgb(0%,0%,0%);stroke-opacity:1;stroke-miterlimit:10;" d="M 112.5 -102.5 C 115.726562 -100.886719 118.976562 -99.3125 122.242188 -97.78125 C 125.472656 -96.265625 128.722656 -94.792969 131.988281 -93.363281 C 135.21875 -91.953125 138.464844 -90.582031 141.730469 -89.253906 C 144.964844 -87.941406 148.210938 -86.671875 151.476562 -85.449219 C 154.707031 -84.234375 157.957031 -83.066406 161.21875 -81.945312 C 164.453125 -80.835938 167.703125 -79.769531 170.964844 -78.75 C 174.199219 -77.738281 177.445312 -76.773438 180.707031 -75.855469 C 183.945312 -74.945312 187.191406 -74.082031 190.453125 -73.269531 C 193.6875 -72.457031 196.9375 -71.699219 200.195312 -70.984375 C 203.433594 -70.277344 206.683594 -69.617188 209.941406 -69.003906 C 213.179688 -68.398438 216.429688 -67.839844 219.683594 -67.332031 C 222.925781 -66.824219 226.175781 -66.367188 229.429688 -65.960938 C 232.671875 -65.554688 235.917969 -65.199219 239.171875 -64.894531 C 242.417969 -64.589844 245.664062 -64.335938 248.917969 -64.132812 C 252.164062 -63.929688 255.410156 -63.777344 258.660156 -63.675781 C 261.910156 -63.574219 265.15625 -63.523438 268.40625 -63.523438 C 271.652344 -63.523438 274.902344 -63.574219 278.148438 -63.675781 C 281.398438 -63.777344 284.648438 -63.929688 287.894531 -64.132812 C 291.144531 -64.335938 294.394531 -64.589844 297.636719 -64.894531 C 300.890625 -65.199219 304.140625 -65.554688 307.382812 -65.960938 C 310.636719 -66.367188 313.886719 -66.824219 317.125 -67.332031 C 320.382812 -67.839844 323.628906 -68.398438 326.871094 -69.007812 C 330.128906 -69.617188 333.375 -70.277344 336.613281 -70.988281 C 339.875 -71.699219 343.121094 -72.460938 346.359375 -73.269531 C 349.617188 -74.085938 352.867188 -74.949219 356.101562 -75.859375 C 359.363281 -76.777344 362.613281 -77.742188 365.847656 -78.75 C 369.109375 -79.773438 372.359375 -80.839844 375.589844 -81.949219 C 378.855469 -83.070312 382.101562 -84.238281 385.335938 -85.453125 C 388.601562 -86.675781 391.847656 -87.945312 395.078125 -89.257812 C 398.34375 -90.585938 401.59375 -91.957031 404.824219 -93.371094 C 408.089844 -94.796875 411.335938 -96.269531 414.566406 -97.785156 C 417.835938 -99.316406 421.082031 -100.890625 424.3125 -102.503906 " transform="matrix(1,0,0,-1,0,0)"/>
<path style="fill:none;stroke-width:1.99252;stroke-linecap:round;stroke-linejoin:round;stroke:rgb(0%,0%,0%);stroke-opacity:1;stroke-miterlimit:10;" d="M 112.5 -82.65625 C 115.726562 -81.042969 118.976562 -79.46875 122.242188 -77.9375 C 125.472656 -76.425781 128.722656 -74.953125 131.988281 -73.523438 " transform="matrix(1,0,0,-1,0,0)"/>
<path style="fill:none;stroke-width:1.99252;stroke-linecap:round;stroke-linejoin:round;stroke:rgb(0%,0%,0%);stroke-opacity:1;stroke-miterlimit:10;" d="M 404.824219 -73.527344 C 408.089844 -74.957031 411.335938 -76.429688 414.566406 -77.941406 C 417.835938 -79.472656 421.082031 -81.046875 424.3125 -82.664062 " transform="matrix(1,0,0,-1,0,0)"/>
<path style="fill-rule:nonzero;fill:rgb(0%,0%,0%);fill-opacity:1;stroke-width:0.99626;stroke-linecap:round;stroke-linejoin:round;stroke:rgb(0%,0%,0%);stroke-opacity:1;stroke-miterlimit:10;" d="M 53.636719 -110.316406 L 43.007812 -92.765625 L 44.847656 -121.5 Z M 53.636719 -110.316406 " transform="matrix(1,0,0,-1,0,0)"/>
<path style="fill-rule:nonzero;fill:rgb(0%,0%,0%);fill-opacity:1;stroke-width:0.99626;stroke-linecap:round;stroke-linejoin:round;stroke:rgb(0%,0%,0%);stroke-opacity:1;stroke-miterlimit:10;" d="M 53.636719 -110.316406 L 44.847656 -121.5 L 66.96875 -100.691406 Z M 53.636719 -110.316406 " transform="matrix(1,0,0,-1,0,0)"/>
<path style="fill-rule:nonzero;fill:rgb(100%,100%,100%);fill-opacity:1;stroke-width:0.99626;stroke-linecap:round;stroke-linejoin:round;stroke:rgb(0%,0%,0%);stroke-opacity:1;stroke-miterlimit:10;" d="M 36.417969 -89.359375 L 6.191406 -78.765625 L 43.007812 -92.765625 Z M 36.417969 -89.359375 " transform="matrix(1,0,0,-1,0,0)"/>
<path style="fill-rule:nonzero;fill:rgb(0%,0%,0%);fill-opacity:1;stroke-width:0.99626;stroke-linecap:round;stroke-linejoin:round;stroke:rgb(0%,0%,0%);stroke-opacity:1;stroke-miterlimit:10;" d="M 36.417969 -89.359375 L 43.371094 -68.453125 L 6.191406 -78.765625 Z M 36.417969 -89.359375 " transform="matrix(1,0,0,-1,0,0)"/>
<path style="fill-rule:nonzero;fill:rgb(0%,0%,0%);fill-opacity:1;stroke-width:0.99626;stroke-linecap:round;stroke-linejoin:round;stroke:rgb(0%,0%,0%);stroke-opacity:1;stroke-miterlimit:10;" d="M 53.636719 -110.316406 L 36.417969 -89.359375 L 15.269531 -116.382812 Z M 53.636719 -110.316406 " transform="matrix(1,0,0,-1,0,0)"/>
<path style="fill-rule:nonzero;fill:rgb(100%,100%,100%);fill-opacity:1;stroke-width:0.99626;stroke-linecap:round;stroke-linejoin:round;stroke:rgb(0%,0%,0%);stroke-opacity:1;stroke-miterlimit:10;" d="M 80.109375 -103.949219 L 95.730469 -108.769531 L 82.90625 -84.015625 Z M 80.109375 -103.949219 " transform="matrix(1,0,0,-1,0,0)"/>
<path style="fill-rule:nonzero;fill:rgb(100%,100%,100%);fill-opacity:1;stroke-width:0.99626;stroke-linecap:round;stroke-linejoin:round;stroke:rgb(0%,0%,0%);stroke-opacity:1;stroke-miterlimit:10;" d="M 62.738281 -97.253906 L 28.730469 -125.210938 L 53.636719 -110.316406 Z M 62.738281 -97.253906 " transform="matrix(1,0,0,-1,0,0)"/>
<path style="fill-rule:nonzero;fill:rgb(100%,100%,100%);fill-opacity:1;stroke-width:0.99626;stroke-linecap:round;stroke-linejoin:round;stroke:rgb(0%,0%,0%);stroke-opacity:1;stroke-miterlimit:10;" d="M 36.417969 -89.359375 L 28.730469 -125.210938 L 62.738281 -97.253906 Z M 36.417969 -89.359375 " transform="matrix(1,0,0,-1,0,0)"/>
<path style="fill-rule:nonzero;fill:rgb(0%,0%,0%);fill-opacity:1;stroke-width:0.99626;stroke-linecap:round;stroke-linejoin:round;stroke:rgb(0%,0%,0%);stroke-opacity:1;stroke-miterlimit:10;" d="M 43.371094 -68.453125 L 55.582031 -68.191406 L 46.804688 -31.402344 Z M 43.371094 -68.453125 " transform="matrix(1,0,0,-1,0,0)"/>
<path style="fill-rule:nonzero;fill:rgb(100%,100%,100%);fill-opacity:1;stroke-width:0.99626;stroke-linecap:round;stroke-linejoin:round;stroke:rgb(0%,0%,0%);stroke-opacity:1;stroke-miterlimit:10;" d="M 55.582031 -68.191406 L 70.035156 -63.292969 L 46.804688 -31.402344 Z M 55.582031 -68.191406 " transform="matrix(1,0,0,-1,0,0)"/>
<path style="fill-rule:nonzero;fill:rgb(100%,100%,100%);fill-opacity:1;stroke-width:0.99626;stroke-linecap:round;stroke-linejoin:round;stroke:rgb(0%,0%,0%);stroke-opacity:1;stroke-miterlimit:10;" d="M 36.417969 -89.359375 L 55.582031 -68.191406 L 11.175781 -52.796875 Z M 36.417969 -89.359375 " transform="matrix(1,0,0,-1,0,0)"/>
<path style="fill-rule:nonzero;fill:rgb(100%,100%,100%);fill-opacity:1;stroke-width:0.99626;stroke-linecap:round;stroke-linejoin:round;stroke:rgb(0%,0%,0%);stroke-opacity:1;stroke-miterlimit:10;" d="M 62.738281 -97.253906 L 55.582031 -68.191406 L 27.597656 -81.652344 Z M 62.738281 -97.253906 " transform="matrix(1,0,0,-1,0,0)"/>
<path style="fill-rule:nonzero;fill:rgb(0%,0%,0%);fill-opacity:1;stroke-width:0.99626;stroke-linecap:round;stroke-linejoin:round;stroke:rgb(0%,0%,0%);stroke-opacity:1;stroke-miterlimit:10;" d="M 62.738281 -97.253906 L 27.597656 -81.652344 L 36.417969 -89.359375 Z M 62.738281 -97.253906 " transform="matrix(1,0,0,-1,0,0)"/>
<path style="fill-rule:nonzero;fill:rgb(0%,0%,0%);fill-opacity:1;stroke-width:0.99626;stroke-linecap:round;stroke-linejoin:round;stroke:rgb(0%,0%,0%);stroke-opacity:1;stroke-miterlimit:10;" d="M 62.738281 -97.253906 L 53.636719 -110.316406 L 72.496094 -135.664062 Z M 62.738281 -97.253906 " transform="matrix(1,0,0,-1,0,0)"/>
<path style="fill-rule:nonzero;fill:rgb(100%,100%,100%);fill-opacity:1;stroke-width:0.99626;stroke-linecap:round;stroke-linejoin:round;stroke:rgb(0%,0%,0%);stroke-opacity:1;stroke-miterlimit:10;" d="M 62.738281 -97.253906 L 72.496094 -135.664062 L 80.109375 -103.949219 Z M 62.738281 -97.253906 " transform="matrix(1,0,0,-1,0,0)"/>
<path style="fill-rule:nonzero;fill:rgb(100%,100%,100%);fill-opacity:1;stroke-width:0.99626;stroke-linecap:round;stroke-linejoin:round;stroke:rgb(0%,0%,0%);stroke-opacity:1;stroke-miterlimit:10;" d="M 83.046875 -79.371094 L 103.875 -59.539062 L 70.035156 -63.292969 Z M 83.046875 -79.371094 " transform="matrix(1,0,0,-1,0,0)"/>
<path style="fill-rule:nonzero;fill:rgb(0%,0%,0%);fill-opacity:1;stroke-width:0.99626;stroke-linecap:round;stroke-linejoin:round;stroke:rgb(0%,0%,0%);stroke-opacity:1;stroke-miterlimit:10;" d="M 83.046875 -79.371094 L 82.90625 -84.015625 L 103.875 -59.539062 Z M 83.046875 -79.371094 " transform="matrix(1,0,0,-1,0,0)"/>
<path style="fill-rule:nonzero;fill:rgb(100%,100%,100%);fill-opacity:1;stroke-width:0.99626;stroke-linecap:round;stroke-linejoin:round;stroke:rgb(0%,0%,0%);stroke-opacity:1;stroke-miterlimit:10;" d="M 80.109375 -103.949219 L 112.363281 -93.339844 L 83.046875 -79.371094 Z M 80.109375 -103.949219 " transform="matrix(1,0,0,-1,0,0)"/>
<path style="fill-rule:nonzero;fill:rgb(0%,0%,0%);fill-opacity:1;stroke-width:0.99626;stroke-linecap:round;stroke-linejoin:round;stroke:rgb(0%,0%,0%);stroke-opacity:1;stroke-miterlimit:10;" d="M 80.109375 -103.949219 L 101.21875 -107.101562 L 62.738281 -97.253906 Z M 80.109375 -103.949219 " transform="matrix(1,0,0,-1,0,0)"/>
<path style="fill-rule:nonzero;fill:rgb(100%,100%,100%);fill-opacity:1;stroke-width:0.99626;stroke-linecap:round;stroke-linejoin:round;stroke:rgb(0%,0%,0%);stroke-opacity:1;stroke-miterlimit:10;" d="M 62.738281 -97.253906 L 101.21875 -107.101562 L 83.046875 -79.371094 Z M 62.738281 -97.253906 " transform="matrix(1,0,0,-1,0,0)"/>
<path style="fill-rule:nonzero;fill:rgb(100%,100%,100%);fill-opacity:1;stroke-width:0.99626;stroke-linecap:round;stroke-linejoin:round;stroke:rgb(0%,0%,0%);stroke-opacity:1;stroke-miterlimit:10;" d="M 55.582031 -68.191406 L 83.046875 -79.371094 L 84.511719 -40.238281 Z M 55.582031 -68.191406 " transform="matrix(1,0,0,-1,0,0)"/>
<path style="fill-rule:nonzero;fill:rgb(0%,0%,0%);fill-opacity:1;stroke-width:0.99626;stroke-linecap:round;stroke-linejoin:round;stroke:rgb(0%,0%,0%);stroke-opacity:1;stroke-miterlimit:10;" d="M 62.738281 -97.253906 L 79.453125 -71.066406 L 55.582031 -68.191406 Z M 62.738281 -97.253906 " transform="matrix(1,0,0,-1,0,0)"/>
<path style="fill-rule:nonzero;fill:rgb(100%,100%,100%);fill-opacity:1;stroke-width:0.99626;stroke-linecap:round;stroke-linejoin:round;stroke:rgb(0%,0%,0%);stroke-opacity:1;stroke-miterlimit:10;" d="M 62.738281 -97.253906 L 83.046875 -79.371094 L 79.453125 -71.066406 Z M 62.738281 -97.253906 " transform="matrix(1,0,0,-1,0,0)"/>
<path style="fill-rule:nonzero;fill:rgb(0%,0%,0%);fill-opacity:1;stroke-width:0.99626;stroke-linecap:round;stroke-linejoin:round;stroke:rgb(0%,0%,0%);stroke-opacity:1;stroke-miterlimit:10;" d="M 53.636719 -110.316406 L 43.007812 -92.765625 L 44.847656 -121.5 Z M 53.636719 -110.316406 " transform="matrix(1,0,0,-1,0,0)"/>
<path style="fill-rule:nonzero;fill:rgb(0%,0%,0%);fill-opacity:1;stroke-width:0.99626;stroke-linecap:round;stroke-linejoin:round;stroke:rgb(0%,0%,0%);stroke-opacity:1;stroke-miterlimit:10;" d="M 53.636719 -110.316406 L 44.847656 -121.5 L 66.96875 -100.691406 Z M 53.636719 -110.316406 " transform="matrix(1,0,0,-1,0,0)"/>
<path style="fill-rule:nonzero;fill:rgb(100%,100%,100%);fill-opacity:1;stroke-width:0.99626;stroke-linecap:round;stroke-linejoin:round;stroke:rgb(0%,0%,0%);stroke-opacity:1;stroke-miterlimit:10;" d="M 36.417969 -89.359375 L 6.191406 -78.765625 L 43.007812 -92.765625 Z M 36.417969 -89.359375 " transform="matrix(1,0,0,-1,0,0)"/>
<path style="fill-rule:nonzero;fill:rgb(0%,0%,0%);fill-opacity:1;stroke-width:0.99626;stroke-linecap:round;stroke-linejoin:round;stroke:rgb(0%,0%,0%);stroke-opacity:1;stroke-miterlimit:10;" d="M 36.417969 -89.359375 L 43.371094 -68.453125 L 6.191406 -78.765625 Z M 36.417969 -89.359375 " transform="matrix(1,0,0,-1,0,0)"/>
<path style="fill-rule:nonzero;fill:rgb(0%,0%,0%);fill-opacity:1;stroke-width:0.99626;stroke-linecap:round;stroke-linejoin:round;stroke:rgb(0%,0%,0%);stroke-opacity:1;stroke-miterlimit:10;" d="M 53.636719 -110.316406 L 36.417969 -89.359375 L 15.269531 -116.382812 Z M 53.636719 -110.316406 " transform="matrix(1,0,0,-1,0,0)"/>
<path style="fill-rule:nonzero;fill:rgb(100%,100%,100%);fill-opacity:1;stroke-width:0.99626;stroke-linecap:round;stroke-linejoin:round;stroke:rgb(0%,0%,0%);stroke-opacity:1;stroke-miterlimit:10;" d="M 80.109375 -103.949219 L 95.730469 -108.769531 L 82.90625 -84.015625 Z M 80.109375 -103.949219 " transform="matrix(1,0,0,-1,0,0)"/>
<path style="fill-rule:nonzero;fill:rgb(100%,100%,100%);fill-opacity:1;stroke-width:0.99626;stroke-linecap:round;stroke-linejoin:round;stroke:rgb(0%,0%,0%);stroke-opacity:1;stroke-miterlimit:10;" d="M 62.738281 -97.253906 L 28.730469 -125.210938 L 53.636719 -110.316406 Z M 62.738281 -97.253906 " transform="matrix(1,0,0,-1,0,0)"/>
<path style="fill-rule:nonzero;fill:rgb(100%,100%,100%);fill-opacity:1;stroke-width:0.99626;stroke-linecap:round;stroke-linejoin:round;stroke:rgb(0%,0%,0%);stroke-opacity:1;stroke-miterlimit:10;" d="M 36.417969 -89.359375 L 28.730469 -125.210938 L 62.738281 -97.253906 Z M 36.417969 -89.359375 " transform="matrix(1,0,0,-1,0,0)"/>
<path style="fill-rule:nonzero;fill:rgb(0%,0%,0%);fill-opacity:1;stroke-width:0.99626;stroke-linecap:round;stroke-linejoin:round;stroke:rgb(0%,0%,0%);stroke-opacity:1;stroke-miterlimit:10;" d="M 43.371094 -68.453125 L 55.582031 -68.191406 L 46.804688 -31.402344 Z M 43.371094 -68.453125 " transform="matrix(1,0,0,-1,0,0)"/>
<path style="fill-rule:nonzero;fill:rgb(100%,100%,100%);fill-opacity:1;stroke-width:0.99626;stroke-linecap:round;stroke-linejoin:round;stroke:rgb(0%,0%,0%);stroke-opacity:1;stroke-miterlimit:10;" d="M 55.582031 -68.191406 L 70.035156 -63.292969 L 46.804688 -31.402344 Z M 55.582031 -68.191406 " transform="matrix(1,0,0,-1,0,0)"/>
<path style="fill-rule:nonzero;fill:rgb(100%,100%,100%);fill-opacity:1;stroke-width:0.99626;stroke-linecap:round;stroke-linejoin:round;stroke:rgb(0%,0%,0%);stroke-opacity:1;stroke-miterlimit:10;" d="M 36.417969 -89.359375 L 55.582031 -68.191406 L 11.175781 -52.796875 Z M 36.417969 -89.359375 " transform="matrix(1,0,0,-1,0,0)"/>
<path style="fill-rule:nonzero;fill:rgb(100%,100%,100%);fill-opacity:1;stroke-width:0.99626;stroke-linecap:round;stroke-linejoin:round;stroke:rgb(0%,0%,0%);stroke-opacity:1;stroke-miterlimit:10;" d="M 62.738281 -97.253906 L 55.582031 -68.191406 L 27.597656 -81.652344 Z M 62.738281 -97.253906 " transform="matrix(1,0,0,-1,0,0)"/>
<path style="fill-rule:nonzero;fill:rgb(0%,0%,0%);fill-opacity:1;stroke-width:0.99626;stroke-linecap:round;stroke-linejoin:round;stroke:rgb(0%,0%,0%);stroke-opacity:1;stroke-miterlimit:10;" d="M 62.738281 -97.253906 L 27.597656 -81.652344 L 36.417969 -89.359375 Z M 62.738281 -97.253906 " transform="matrix(1,0,0,-1,0,0)"/>
<path style="fill-rule:nonzero;fill:rgb(0%,0%,0%);fill-opacity:1;stroke-width:0.99626;stroke-linecap:round;stroke-linejoin:round;stroke:rgb(0%,0%,0%);stroke-opacity:1;stroke-miterlimit:10;" d="M 62.738281 -97.253906 L 53.636719 -110.316406 L 72.496094 -135.664062 Z M 62.738281 -97.253906 " transform="matrix(1,0,0,-1,0,0)"/>
<path style="fill-rule:nonzero;fill:rgb(100%,100%,100%);fill-opacity:1;stroke-width:0.99626;stroke-linecap:round;stroke-linejoin:round;stroke:rgb(0%,0%,0%);stroke-opacity:1;stroke-miterlimit:10;" d="M 62.738281 -97.253906 L 72.496094 -135.664062 L 80.109375 -103.949219 Z M 62.738281 -97.253906 " transform="matrix(1,0,0,-1,0,0)"/>
<path style="fill-rule:nonzero;fill:rgb(100%,100%,100%);fill-opacity:1;stroke-width:0.99626;stroke-linecap:round;stroke-linejoin:round;stroke:rgb(0%,0%,0%);stroke-opacity:1;stroke-miterlimit:10;" d="M 83.046875 -79.371094 L 103.875 -59.539062 L 70.035156 -63.292969 Z M 83.046875 -79.371094 " transform="matrix(1,0,0,-1,0,0)"/>
<path style="fill-rule:nonzero;fill:rgb(0%,0%,0%);fill-opacity:1;stroke-width:0.99626;stroke-linecap:round;stroke-linejoin:round;stroke:rgb(0%,0%,0%);stroke-opacity:1;stroke-miterlimit:10;" d="M 83.046875 -79.371094 L 82.90625 -84.015625 L 103.875 -59.539062 Z M 83.046875 -79.371094 " transform="matrix(1,0,0,-1,0,0)"/>
<path style="fill-rule:nonzero;fill:rgb(100%,100%,100%);fill-opacity:1;stroke-width:0.99626;stroke-linecap:round;stroke-linejoin:round;stroke:rgb(0%,0%,0%);stroke-opacity:1;stroke-miterlimit:10;" d="M 80.109375 -103.949219 L 112.363281 -93.339844 L 83.046875 -79.371094 Z M 80.109375 -103.949219 " transform="matrix(1,0,0,-1,0,0)"/>
<path style="fill-rule:nonzero;fill:rgb(0%,0%,0%);fill-opacity:1;stroke-width:0.99626;stroke-linecap:round;stroke-linejoin:round;stroke:rgb(0%,0%,0%);stroke-opacity:1;stroke-miterlimit:10;" d="M 80.109375 -103.949219 L 101.21875 -107.101562 L 62.738281 -97.253906 Z M 80.109375 -103.949219 " transform="matrix(1,0,0,-1,0,0)"/>
<path style="fill-rule:nonzero;fill:rgb(100%,100%,100%);fill-opacity:1;stroke-width:0.99626;stroke-linecap:round;stroke-linejoin:round;stroke:rgb(0%,0%,0%);stroke-opacity:1;stroke-miterlimit:10;" d="M 62.738281 -97.253906 L 101.21875 -107.101562 L 83.046875 -79.371094 Z M 62.738281 -97.253906 " transform="matrix(1,0,0,-1,0,0)"/>
<path style="fill-rule:nonzero;fill:rgb(100%,100%,100%);fill-opacity:1;stroke-width:0.99626;stroke-linecap:round;stroke-linejoin:round;stroke:rgb(0%,0%,0%);stroke-opacity:1;stroke-miterlimit:10;" d="M 55.582031 -68.191406 L 83.046875 -79.371094 L 84.511719 -40.238281 Z M 55.582031 -68.191406 " transform="matrix(1,0,0,-1,0,0)"/>
<path style="fill-rule:nonzero;fill:rgb(0%,0%,0%);fill-opacity:1;stroke-width:0.99626;stroke-linecap:round;stroke-linejoin:round;stroke:rgb(0%,0%,0%);stroke-opacity:1;stroke-miterlimit:10;" d="M 62.738281 -97.253906 L 79.453125 -71.066406 L 55.582031 -68.191406 Z M 62.738281 -97.253906 " transform="matrix(1,0,0,-1,0,0)"/>
<path style="fill-rule:nonzero;fill:rgb(100%,100%,100%);fill-opacity:1;stroke-width:0.99626;stroke-linecap:round;stroke-linejoin:round;stroke:rgb(0%,0%,0%);stroke-opacity:1;stroke-miterlimit:10;" d="M 62.738281 -97.253906 L 83.046875 -79.371094 L 79.453125 -71.066406 Z M 62.738281 -97.253906 " transform="matrix(1,0,0,-1,0,0)"/>
</g>
</svg>
